<svg xmlns="http://www.w3.org/2000/svg" xmlns:xlink="http://www.w3.org/1999/xlink" width="500" zoomAndPan="magnify" viewBox="0 0 375 374.999991" height="500" preserveAspectRatio="xMidYMid meet" version="1.0"><defs><g/><clipPath id="0dc1057d20"><rect x="0" width="174" y="0" height="103"/></clipPath><clipPath id="c7a4530ed0"><path d="M 2.019531 101.9375 L 188 101.9375 L 188 287.9375 L 2.019531 287.9375 Z M 2.019531 101.9375 " clip-rule="nonzero"/></clipPath><clipPath id="96d96476a8"><path d="M 8.589844 108.507812 L 181.089844 108.507812 L 181.089844 281.007812 L 8.589844 281.007812 Z M 8.589844 108.507812 " clip-rule="nonzero"/></clipPath><clipPath id="486be44a46"><rect x="0" width="210" y="0" height="193"/></clipPath><clipPath id="c1348161b9"><rect x="0" width="131" y="0" height="260"/></clipPath></defs><rect x="-37.5" width="450" fill="#ffffff" y="-37.499999" height="449.999989" fill-opacity="1"/><rect x="-37.5" width="450" fill="#ffffff" y="-37.499999" height="449.999989" fill-opacity="1"/><g transform="matrix(1, 0, 0, 1, 201, 134)"><g clip-path="url(#0dc1057d20)"><g fill="#19365a" fill-opacity="1"><g transform="translate(1.0561, 41.290153)"><g><path d="M 26.453125 -2.78125 C 23.335938 -0.925781 19.1875 0 14 0 L 4.21875 0 C 4.21875 0.101562 4.414062 0.015625 4.8125 -0.265625 C 5.207031 -0.546875 5.5625 -1.066406 5.875 -1.828125 C 6.195312 -2.597656 6.359375 -3.707031 6.359375 -5.15625 L 6.359375 -29.578125 C 6.359375 -30.867188 6.195312 -31.851562 5.875 -32.53125 C 5.5625 -33.207031 5.207031 -33.660156 4.8125 -33.890625 C 4.414062 -34.117188 4.21875 -34.203125 4.21875 -34.140625 L 13.9375 -34.140625 C 19 -34.140625 23.003906 -33.3125 25.953125 -31.65625 C 28.566406 -30.207031 30.582031 -28.238281 32 -25.75 C 33.425781 -23.269531 34.140625 -20.476562 34.140625 -17.375 C 34.140625 -14 33.46875 -11.078125 32.125 -8.609375 C 30.789062 -6.140625 28.898438 -4.195312 26.453125 -2.78125 Z M 24.515625 -29.421875 C 23.054688 -30.378906 21.5 -31.070312 19.84375 -31.5 C 18.195312 -31.9375 16.226562 -32.15625 13.9375 -32.15625 L 9.921875 -32.15625 L 9.921875 -1.984375 L 13.9375 -1.984375 C 16.65625 -1.984375 18.878906 -2.210938 20.609375 -2.671875 C 22.347656 -3.140625 23.847656 -3.851562 25.109375 -4.8125 C 26.734375 -6.070312 27.984375 -7.71875 28.859375 -9.75 C 29.734375 -11.78125 30.171875 -14.15625 30.171875 -16.875 C 30.171875 -19.75 29.664062 -22.269531 28.65625 -24.4375 C 27.644531 -26.601562 26.265625 -28.265625 24.515625 -29.421875 Z M 24.515625 -29.421875 "/></g></g></g><g fill="#19365a" fill-opacity="1"><g transform="translate(37.967066, 41.290153)"><g><path d="M 4.171875 0 C 4.171875 0.101562 4.367188 0.03125 4.765625 -0.21875 C 5.160156 -0.46875 5.523438 -0.929688 5.859375 -1.609375 C 6.191406 -2.285156 6.359375 -3.285156 6.359375 -4.609375 L 6.359375 -29.53125 C 6.359375 -30.851562 6.195312 -31.851562 5.875 -32.53125 C 5.5625 -33.207031 5.207031 -33.660156 4.8125 -33.890625 C 4.414062 -34.117188 4.21875 -34.203125 4.21875 -34.140625 L 12.109375 -34.140625 C 12.109375 -34.203125 11.910156 -34.117188 11.515625 -33.890625 C 11.117188 -33.660156 10.753906 -33.207031 10.421875 -32.53125 C 10.085938 -31.851562 9.921875 -30.851562 9.921875 -29.53125 L 9.921875 -4.609375 C 9.921875 -3.285156 10.085938 -2.285156 10.421875 -1.609375 C 10.753906 -0.929688 11.117188 -0.476562 11.515625 -0.25 C 11.910156 -0.0195312 12.109375 0.0625 12.109375 0 Z M 4.171875 0 "/></g></g></g><g fill="#19365a" fill-opacity="1"><g transform="translate(53.459527, 41.290153)"><g/></g></g><g fill="#19365a" fill-opacity="1"><g transform="translate(1.0561, 87.819278)"><g><path d="M 7.34375 -32.15625 C 5.882812 -32.15625 4.675781 -31.875 3.71875 -31.3125 C 2.757812 -30.75 2.066406 -30.035156 1.640625 -29.171875 L 2.328125 -34.140625 L 25.859375 -34.140625 L 26.546875 -29.171875 C 26.117188 -30.035156 25.425781 -30.75 24.46875 -31.3125 C 23.507812 -31.875 22.300781 -32.15625 20.84375 -32.15625 L 15.875 -32.15625 L 15.875 -4.609375 C 15.875 -3.285156 16.039062 -2.273438 16.375 -1.578125 C 16.707031 -0.890625 17.070312 -0.425781 17.46875 -0.1875 C 17.863281 0.0390625 18.0625 0.101562 18.0625 0 L 10.171875 0 C 10.171875 0.101562 10.367188 0.0390625 10.765625 -0.1875 C 11.160156 -0.425781 11.515625 -0.882812 11.828125 -1.5625 C 12.148438 -2.238281 12.3125 -3.253906 12.3125 -4.609375 L 12.3125 -32.15625 Z M 7.34375 -32.15625 "/></g></g></g><g fill="#19365a" fill-opacity="1"><g transform="translate(28.441659, 87.819278)"><g><path d="M 26.40625 0 C 26.40625 0.101562 26.601562 0.03125 27 -0.21875 C 27.394531 -0.46875 27.753906 -0.929688 28.078125 -1.609375 C 28.410156 -2.285156 28.578125 -3.285156 28.578125 -4.609375 L 28.578125 -15.875 L 9.921875 -15.875 L 9.921875 -4.609375 C 9.921875 -3.285156 10.085938 -2.285156 10.421875 -1.609375 C 10.753906 -0.929688 11.117188 -0.476562 11.515625 -0.25 C 11.910156 -0.0195312 12.109375 0.0625 12.109375 0 L 4.21875 0 C 4.21875 0.101562 4.414062 0.03125 4.8125 -0.21875 C 5.207031 -0.46875 5.5625 -0.929688 5.875 -1.609375 C 6.195312 -2.285156 6.359375 -3.285156 6.359375 -4.609375 L 6.359375 -29.53125 C 6.359375 -30.851562 6.195312 -31.851562 5.875 -32.53125 C 5.5625 -33.207031 5.207031 -33.660156 4.8125 -33.890625 C 4.414062 -34.117188 4.21875 -34.203125 4.21875 -34.140625 L 12.109375 -34.140625 C 12.109375 -34.203125 11.910156 -34.117188 11.515625 -33.890625 C 11.117188 -33.660156 10.753906 -33.207031 10.421875 -32.53125 C 10.085938 -31.851562 9.921875 -30.851562 9.921875 -29.53125 L 9.921875 -18.0625 L 28.578125 -18.0625 L 28.578125 -29.53125 C 28.578125 -30.851562 28.410156 -31.851562 28.078125 -32.53125 C 27.753906 -33.207031 27.394531 -33.660156 27 -33.890625 C 26.601562 -34.117188 26.40625 -34.203125 26.40625 -34.140625 L 34.296875 -34.140625 C 34.296875 -34.242188 34.09375 -34.171875 33.6875 -33.921875 C 33.289062 -33.671875 32.9375 -33.207031 32.625 -32.53125 C 32.3125 -31.851562 32.15625 -30.851562 32.15625 -29.53125 L 32.15625 -4.609375 C 32.15625 -3.285156 32.320312 -2.285156 32.65625 -1.609375 C 32.988281 -0.929688 33.351562 -0.476562 33.75 -0.25 C 34.144531 -0.0195312 34.34375 0.0625 34.34375 0 Z M 26.40625 0 "/></g></g></g><g fill="#19365a" fill-opacity="1"><g transform="translate(66.146409, 87.819278)"><g><path d="M 4.171875 0 C 4.171875 0.101562 4.367188 0.03125 4.765625 -0.21875 C 5.160156 -0.46875 5.523438 -0.929688 5.859375 -1.609375 C 6.191406 -2.285156 6.359375 -3.285156 6.359375 -4.609375 L 6.359375 -29.53125 C 6.359375 -30.851562 6.195312 -31.851562 5.875 -32.53125 C 5.5625 -33.207031 5.207031 -33.660156 4.8125 -33.890625 C 4.414062 -34.117188 4.21875 -34.203125 4.21875 -34.140625 L 12.109375 -34.140625 C 12.109375 -34.203125 11.910156 -34.117188 11.515625 -33.890625 C 11.117188 -33.660156 10.753906 -33.207031 10.421875 -32.53125 C 10.085938 -31.851562 9.921875 -30.851562 9.921875 -29.53125 L 9.921875 -4.609375 C 9.921875 -3.285156 10.085938 -2.285156 10.421875 -1.609375 C 10.753906 -0.929688 11.117188 -0.476562 11.515625 -0.25 C 11.910156 -0.0195312 12.109375 0.0625 12.109375 0 Z M 4.171875 0 "/></g></g></g><g fill="#19365a" fill-opacity="1"><g transform="translate(81.62521, 87.819278)"><g><path d="M 4.21875 0 C 4.21875 0.101562 4.414062 0.03125 4.8125 -0.21875 C 5.207031 -0.46875 5.5625 -0.960938 5.875 -1.703125 C 6.195312 -2.453125 6.359375 -3.539062 6.359375 -4.96875 L 6.359375 -29.328125 C 6.359375 -30.679688 6.195312 -31.710938 5.875 -32.421875 C 5.5625 -33.140625 5.207031 -33.628906 4.8125 -33.890625 C 4.414062 -34.160156 4.21875 -34.242188 4.21875 -34.140625 L 22.1875 -34.140625 L 22.1875 -29.171875 C 21.59375 -31.160156 19.804688 -32.15625 16.828125 -32.15625 L 9.921875 -32.15625 L 9.921875 -18.0625 L 18.453125 -18.0625 C 19.117188 -18.0625 19.679688 -18.164062 20.140625 -18.375 C 20.609375 -18.59375 20.957031 -18.816406 21.1875 -19.046875 C 21.414062 -19.285156 21.550781 -19.4375 21.59375 -19.5 L 21.59375 -14.6875 C 21.550781 -14.75 21.414062 -14.894531 21.1875 -15.125 C 20.957031 -15.363281 20.617188 -15.582031 20.171875 -15.78125 C 19.722656 -15.976562 19.171875 -16.078125 18.515625 -16.078125 L 9.921875 -16.078125 L 9.921875 -1.984375 L 17.671875 -1.984375 C 19.160156 -1.984375 20.441406 -2.289062 21.515625 -2.90625 C 22.585938 -3.519531 23.351562 -4.304688 23.8125 -5.265625 L 22.921875 0 Z M 4.21875 0 "/></g></g></g><g fill="#19365a" fill-opacity="1"><g transform="translate(107.820079, 87.819278)"><g><path d="M 36.171875 -34.140625 C 35.710938 -34.046875 35.257812 -33.675781 34.8125 -33.03125 C 34.363281 -32.382812 34.140625 -31.25 34.140625 -29.625 L 34.140625 1.390625 L 8.734375 -28.234375 L 8.734375 -4.46875 C 8.734375 -2.875 9.015625 -1.753906 9.578125 -1.109375 C 10.140625 -0.472656 10.6875 -0.101562 11.21875 0 L 4.21875 0 C 4.675781 -0.101562 5.144531 -0.472656 5.625 -1.109375 C 6.113281 -1.753906 6.359375 -2.890625 6.359375 -4.515625 L 6.359375 -29.328125 C 6.359375 -30.453125 5.972656 -31.476562 5.203125 -32.40625 C 4.441406 -33.332031 3.484375 -33.910156 2.328125 -34.140625 L 8.484375 -34.140625 L 31.765625 -7 L 31.765625 -29.625 C 31.765625 -32.175781 30.898438 -33.679688 29.171875 -34.140625 Z M 36.171875 -34.140625 "/></g></g></g><g fill="#19365a" fill-opacity="1"><g transform="translate(147.509276, 87.819278)"><g><path d="M 4.21875 0 C 4.21875 0.101562 4.414062 0.03125 4.8125 -0.21875 C 5.207031 -0.46875 5.5625 -0.960938 5.875 -1.703125 C 6.195312 -2.453125 6.359375 -3.539062 6.359375 -4.96875 L 6.359375 -29.328125 C 6.359375 -30.679688 6.195312 -31.710938 5.875 -32.421875 C 5.5625 -33.140625 5.207031 -33.628906 4.8125 -33.890625 C 4.414062 -34.160156 4.21875 -34.242188 4.21875 -34.140625 L 22.1875 -34.140625 L 22.1875 -29.171875 C 21.59375 -31.160156 19.804688 -32.15625 16.828125 -32.15625 L 9.921875 -32.15625 L 9.921875 -18.0625 L 18.453125 -18.0625 C 19.117188 -18.0625 19.679688 -18.164062 20.140625 -18.375 C 20.609375 -18.59375 20.957031 -18.816406 21.1875 -19.046875 C 21.414062 -19.285156 21.550781 -19.4375 21.59375 -19.5 L 21.59375 -14.6875 C 21.550781 -14.75 21.414062 -14.894531 21.1875 -15.125 C 20.957031 -15.363281 20.617188 -15.582031 20.171875 -15.78125 C 19.722656 -15.976562 19.171875 -16.078125 18.515625 -16.078125 L 9.921875 -16.078125 L 9.921875 -1.984375 L 17.671875 -1.984375 C 19.160156 -1.984375 20.441406 -2.289062 21.515625 -2.90625 C 22.585938 -3.519531 23.351562 -4.304688 23.8125 -5.265625 L 22.921875 0 Z M 4.21875 0 "/></g></g></g></g></g><g clip-path="url(#c7a4530ed0)"><path fill="#19365a" d="M 187.925781 287.84375 L 2.019531 287.84375 L 2.019531 101.9375 L 187.925781 101.9375 Z M 3.199219 286.664062 L 186.742188 286.664062 L 186.742188 103.121094 L 3.199219 103.121094 Z M 3.199219 286.664062 " fill-opacity="1" fill-rule="nonzero"/></g><g clip-path="url(#96d96476a8)"><path fill="#19365a" d="M 181.359375 281.277344 L 8.589844 281.277344 L 8.589844 108.507812 L 181.359375 108.507812 Z M 9.6875 280.179688 L 180.261719 280.179688 L 180.261719 109.609375 L 9.6875 109.609375 Z M 9.6875 280.179688 " fill-opacity="1" fill-rule="nonzero"/></g><g transform="matrix(1, 0, 0, 1, 112, 127)"><g clip-path="url(#486be44a46)"><g fill="#19365a" fill-opacity="1"><g transform="translate(2.229804, 134.688571)"><g><path d="M 160.109375 7.0625 C 168.515625 7.0625 176.695312 8.8125 184.65625 12.3125 C 192.625 15.820312 199.535156 20.441406 205.390625 26.171875 L 204.8125 26.9375 C 198.695312 21.59375 192.007812 18.023438 184.75 16.234375 C 177.488281 14.453125 169.910156 13.5625 162.015625 13.5625 C 156.671875 13.5625 151.453125 13.816406 146.359375 14.328125 C 141.265625 14.835938 136.101562 15.472656 130.875 16.234375 L 121.890625 17.390625 C 116.671875 18.148438 111.484375 18.785156 106.328125 19.296875 C 101.171875 19.804688 95.976562 20.0625 90.75 20.0625 C 82.21875 20.0625 73.9375 19.171875 65.90625 17.390625 C 57.882812 15.609375 50.4375 12.867188 43.5625 9.171875 C 36.6875 5.472656 30.507812 0.695312 25.03125 -5.15625 C 19.550781 -11.019531 15.03125 -18.023438 11.46875 -26.171875 C 9.425781 -31.015625 7.863281 -36.015625 6.78125 -41.171875 C 5.695312 -46.328125 5.15625 -51.582031 5.15625 -56.9375 C 5.15625 -65.09375 6.617188 -72.609375 9.546875 -79.484375 C 12.484375 -86.359375 16.53125 -92.3125 21.6875 -97.34375 C 26.84375 -102.375 32.890625 -106.320312 39.828125 -109.1875 C 46.773438 -112.050781 54.328125 -113.484375 62.484375 -113.484375 C 63.117188 -113.484375 63.785156 -113.484375 64.484375 -113.484375 C 65.179688 -113.484375 65.847656 -113.421875 66.484375 -113.296875 L 69.359375 -113.109375 L 70.3125 -113.109375 L 72.40625 -112.921875 C 74.707031 -112.921875 76.84375 -113.207031 78.8125 -113.78125 C 80.789062 -114.351562 82.222656 -115.910156 83.109375 -118.453125 L 87.5 -94.953125 C 85.46875 -99.671875 82.09375 -103.6875 77.375 -107 C 72.664062 -110.3125 67.703125 -111.96875 62.484375 -111.96875 C 54.453125 -111.96875 47.664062 -110.40625 42.125 -107.28125 C 36.582031 -104.15625 32.0625 -100.046875 28.5625 -94.953125 C 25.0625 -89.859375 22.515625 -84 20.921875 -77.375 C 19.328125 -70.75 18.53125 -63.9375 18.53125 -56.9375 C 18.53125 -46.238281 20.023438 -36.300781 23.015625 -27.125 C 26.015625 -17.957031 30.441406 -10.03125 36.296875 -3.34375 C 42.160156 3.34375 49.390625 8.597656 57.984375 12.421875 C 66.585938 16.242188 76.492188 18.15625 87.703125 18.15625 C 93.171875 18.15625 98.515625 17.707031 103.734375 16.8125 C 108.960938 15.914062 114.1875 14.832031 119.40625 13.5625 L 128.390625 11.65625 C 133.742188 10.382812 139.03125 9.300781 144.25 8.40625 C 149.46875 7.507812 154.753906 7.0625 160.109375 7.0625 Z M 160.109375 7.0625 "/></g></g></g></g></g><g fill="#19365a" fill-opacity="1"><g transform="translate(91.010045, 102.359312)"><g><path d="M 12.9375 -13.90625 L 12.9375 0 L 11.359375 0 L 11.359375 -6.1875 L 3.28125 -6.1875 L 3.28125 0 L 1.703125 0 L 1.703125 -13.90625 L 3.28125 -13.90625 L 3.28125 -7.734375 L 11.359375 -7.734375 L 11.359375 -13.90625 Z M 12.9375 -13.90625 "/></g></g></g><g fill="#19365a" fill-opacity="1"><g transform="translate(105.647106, 102.359312)"><g><path d="M 7.875 -14.0625 C 9.945312 -14.0625 11.648438 -13.367188 12.984375 -11.984375 C 14.285156 -10.640625 14.9375 -8.957031 14.9375 -6.9375 C 14.9375 -4.925781 14.285156 -3.25 12.984375 -1.90625 C 11.648438 -0.519531 9.945312 0.171875 7.875 0.171875 C 5.800781 0.171875 4.097656 -0.519531 2.765625 -1.90625 C 1.460938 -3.25 0.8125 -4.925781 0.8125 -6.9375 C 0.8125 -8.957031 1.460938 -10.640625 2.765625 -11.984375 C 4.097656 -13.367188 5.800781 -14.0625 7.875 -14.0625 Z M 7.875 -1.359375 C 9.53125 -1.359375 10.867188 -1.898438 11.890625 -2.984375 C 12.867188 -4.015625 13.359375 -5.335938 13.359375 -6.953125 C 13.359375 -8.554688 12.867188 -9.878906 11.890625 -10.921875 C 10.867188 -11.992188 9.53125 -12.53125 7.875 -12.53125 C 6.21875 -12.53125 4.878906 -11.992188 3.859375 -10.921875 C 2.878906 -9.878906 2.390625 -8.554688 2.390625 -6.953125 C 2.390625 -5.335938 2.878906 -4.015625 3.859375 -2.984375 C 4.878906 -1.898438 6.21875 -1.359375 7.875 -1.359375 Z M 7.875 -1.359375 "/></g></g></g><g fill="#19365a" fill-opacity="1"><g transform="translate(121.397174, 102.359312)"><g><path d="M 3.296875 -11.765625 C 3.023438 -11.535156 2.84375 -11.28125 2.75 -11 C 2.664062 -10.71875 2.625 -10.421875 2.625 -10.109375 C 2.625 -9.796875 2.757812 -9.503906 3.03125 -9.234375 C 3.300781 -8.972656 3.660156 -8.75 4.109375 -8.5625 C 4.554688 -8.382812 5.066406 -8.222656 5.640625 -8.078125 C 6.222656 -7.941406 6.8125 -7.800781 7.40625 -7.65625 C 8 -7.507812 8.582031 -7.335938 9.15625 -7.140625 C 9.726562 -6.953125 10.238281 -6.710938 10.6875 -6.421875 C 11.6875 -5.796875 12.1875 -4.9375 12.1875 -3.84375 C 12.1875 -2.539062 11.695312 -1.546875 10.71875 -0.859375 C 9.75 -0.171875 8.398438 0.171875 6.671875 0.171875 C 4.734375 0.171875 3.25 -0.234375 2.21875 -1.046875 C 1.3125 -1.773438 0.796875 -2.8125 0.671875 -4.15625 L 2.3125 -4.15625 C 2.363281 -3.207031 2.828125 -2.476562 3.703125 -1.96875 C 4.453125 -1.539062 5.453125 -1.328125 6.703125 -1.328125 C 9.304688 -1.328125 10.609375 -2.144531 10.609375 -3.78125 C 10.609375 -4.34375 10.375 -4.785156 9.90625 -5.109375 C 9.4375 -5.429688 8.847656 -5.695312 8.140625 -5.90625 C 7.429688 -6.113281 6.664062 -6.304688 5.84375 -6.484375 C 5.03125 -6.671875 4.269531 -6.90625 3.5625 -7.1875 C 2.851562 -7.476562 2.265625 -7.859375 1.796875 -8.328125 C 1.328125 -8.796875 1.09375 -9.429688 1.09375 -10.234375 C 1.09375 -11.359375 1.523438 -12.273438 2.390625 -12.984375 C 3.265625 -13.703125 4.578125 -14.0625 6.328125 -14.0625 C 8.085938 -14.0625 9.453125 -13.660156 10.421875 -12.859375 C 11.296875 -12.140625 11.765625 -11.21875 11.828125 -10.09375 L 10.203125 -10.09375 C 10.066406 -11.25 9.328125 -12.015625 7.984375 -12.390625 C 7.503906 -12.523438 6.910156 -12.59375 6.203125 -12.59375 C 5.492188 -12.59375 4.898438 -12.507812 4.421875 -12.34375 C 3.941406 -12.1875 3.566406 -11.992188 3.296875 -11.765625 Z M 3.296875 -11.765625 "/></g></g></g><g fill="#19365a" fill-opacity="1"><g transform="translate(134.312232, 102.359312)"><g><path d="M 3.28125 0 L 1.703125 0 L 1.703125 -13.90625 L 7.953125 -13.90625 C 9.421875 -13.90625 10.59375 -13.5 11.46875 -12.6875 C 12.320312 -11.875 12.75 -10.785156 12.75 -9.421875 C 12.75 -8.054688 12.316406 -6.96875 11.453125 -6.15625 C 10.585938 -5.351562 9.421875 -4.953125 7.953125 -4.953125 L 3.28125 -4.953125 Z M 3.28125 -12.40625 L 3.28125 -6.421875 L 7.859375 -6.421875 C 8.941406 -6.421875 9.765625 -6.6875 10.328125 -7.21875 C 10.890625 -7.75 11.171875 -8.476562 11.171875 -9.40625 C 11.171875 -10.34375 10.890625 -11.078125 10.328125 -11.609375 C 9.765625 -12.140625 8.941406 -12.40625 7.859375 -12.40625 Z M 3.28125 -12.40625 "/></g></g></g><g fill="#19365a" fill-opacity="1"><g transform="translate(147.500288, 102.359312)"><g><path d="M 3.28125 0 L 1.703125 0 L 1.703125 -13.90625 L 3.28125 -13.90625 Z M 3.28125 0 "/></g></g></g><g fill="#19365a" fill-opacity="1"><g transform="translate(152.477311, 102.359312)"><g><path d="M 11.578125 -12.390625 L 6.71875 -12.390625 L 6.71875 0 L 5.140625 0 L 5.140625 -12.390625 L 0.296875 -12.390625 L 0.296875 -13.90625 L 11.578125 -13.90625 Z M 11.578125 -12.390625 "/></g></g></g><g fill="#19365a" fill-opacity="1"><g transform="translate(163.103367, 102.359312)"><g><path d="M 13.84375 0 L 12.09375 0 L 10.390625 -4.03125 L 3.5 -4.03125 L 1.8125 0 L 0.0625 0 L 5.96875 -13.90625 L 7.9375 -13.90625 Z M 9.78125 -5.484375 L 6.953125 -12.265625 L 4.109375 -5.484375 Z M 9.78125 -5.484375 "/></g></g></g><g fill="#19365a" fill-opacity="1"><g transform="translate(177.005421, 102.359312)"><g><path d="M 3.28125 -13.90625 L 3.28125 -1.515625 L 10.859375 -1.515625 L 10.859375 0 L 1.703125 0 L 1.703125 -13.90625 Z M 3.28125 -13.90625 "/></g></g></g><g transform="matrix(1, 0, 0, 1, 2, 5)"><g clip-path="url(#c1348161b9)"><g fill="#19365a" fill-opacity="1"><g transform="translate(1.396748, 181.464811)"><g><path d="M 121.03125 -8.78125 C 121.03125 -0.175781 119.648438 7.648438 116.890625 14.703125 C 114.140625 21.765625 110.226562 27.785156 105.15625 32.765625 C 100.082031 37.753906 94.019531 41.625 86.96875 44.375 C 79.914062 47.132812 72.085938 48.515625 63.484375 48.515625 C 55.742188 48.515625 48.34375 47.3125 41.28125 44.90625 C 34.226562 42.5 28.035156 39.015625 22.703125 34.453125 C 17.367188 29.890625 13.109375 24.335938 9.921875 17.796875 C 6.742188 11.265625 5.15625 3.867188 5.15625 -4.390625 C 5.15625 -12.304688 6.53125 -19.101562 9.28125 -24.78125 C 12.039062 -30.457031 15.785156 -35.144531 20.515625 -38.84375 C 25.242188 -42.539062 30.789062 -45.289062 37.15625 -47.09375 C 43.519531 -48.90625 50.316406 -49.8125 57.546875 -49.8125 L 57.546875 -48.78125 C 51.347656 -48.425781 45.625 -46.914062 40.375 -44.25 C 35.132812 -41.582031 30.664062 -38.097656 26.96875 -33.796875 C 23.269531 -29.503906 20.382812 -24.601562 18.3125 -19.09375 C 16.25 -13.59375 15.21875 -7.742188 15.21875 -1.546875 C 15.21875 5.503906 16.378906 11.910156 18.703125 17.671875 C 21.023438 23.441406 24.25 28.390625 28.375 32.515625 C 32.507812 36.640625 37.5 39.820312 43.34375 42.0625 C 49.195312 44.300781 55.648438 45.421875 62.703125 45.421875 C 76.640625 45.421875 87.519531 41.332031 95.34375 33.15625 C 103.175781 24.988281 107.09375 13.9375 107.09375 0 C 107.09375 -7.394531 105.414062 -14.144531 102.0625 -20.25 C 98.707031 -26.363281 94.492188 -32.128906 89.421875 -37.546875 C 84.347656 -42.960938 78.84375 -48.164062 72.90625 -53.15625 C 66.96875 -58.144531 61.460938 -63.132812 56.390625 -68.125 C 51.316406 -73.113281 47.097656 -78.273438 43.734375 -83.609375 C 40.378906 -88.941406 38.703125 -94.707031 38.703125 -100.90625 C 38.703125 -105.375 39.519531 -109.414062 41.15625 -113.03125 C 42.789062 -116.644531 45.023438 -119.65625 47.859375 -122.0625 C 50.703125 -124.46875 54.015625 -126.316406 57.796875 -127.609375 C 61.585938 -128.898438 65.632812 -129.546875 69.9375 -129.546875 C 71.65625 -129.546875 73.332031 -129.375 74.96875 -129.03125 C 76.601562 -128.6875 78.191406 -128.34375 79.734375 -128 L 86.1875 -125.9375 C 89.632812 -124.90625 92.90625 -124.390625 96 -124.390625 C 98.40625 -124.390625 100.296875 -125.332031 101.671875 -127.21875 L 99.875 -97.296875 C 99.1875 -100.734375 97.976562 -104.257812 96.25 -107.875 C 94.53125 -111.488281 92.335938 -114.753906 89.671875 -117.671875 C 87.003906 -120.597656 83.992188 -123.050781 80.640625 -125.03125 C 77.285156 -127.007812 73.628906 -128 69.671875 -128 C 63.304688 -128 57.84375 -126.273438 53.28125 -122.828125 C 48.726562 -119.390625 46.453125 -114.234375 46.453125 -107.359375 C 46.453125 -102.023438 48.300781 -96.90625 52 -92 C 55.695312 -87.09375 60.296875 -82.273438 65.796875 -77.546875 C 71.304688 -72.816406 77.285156 -68 83.734375 -63.09375 C 90.191406 -58.1875 96.171875 -52.976562 101.671875 -47.46875 C 107.179688 -41.96875 111.785156 -36.035156 115.484375 -29.671875 C 119.179688 -23.304688 121.03125 -16.34375 121.03125 -8.78125 Z M 121.03125 -8.78125 "/></g></g></g></g></g><g fill="#19365a" fill-opacity="1"><g transform="translate(207.125792, 253.058979)"><g><path d="M 3.296875 -11.765625 C 3.023438 -11.535156 2.84375 -11.28125 2.75 -11 C 2.664062 -10.71875 2.625 -10.421875 2.625 -10.109375 C 2.625 -9.796875 2.757812 -9.503906 3.03125 -9.234375 C 3.300781 -8.972656 3.660156 -8.75 4.109375 -8.5625 C 4.554688 -8.382812 5.066406 -8.222656 5.640625 -8.078125 C 6.222656 -7.941406 6.8125 -7.800781 7.40625 -7.65625 C 8 -7.507812 8.582031 -7.335938 9.15625 -7.140625 C 9.726562 -6.953125 10.238281 -6.710938 10.6875 -6.421875 C 11.6875 -5.796875 12.1875 -4.9375 12.1875 -3.84375 C 12.1875 -2.539062 11.695312 -1.546875 10.71875 -0.859375 C 9.75 -0.171875 8.398438 0.171875 6.671875 0.171875 C 4.734375 0.171875 3.25 -0.234375 2.21875 -1.046875 C 1.3125 -1.773438 0.796875 -2.8125 0.671875 -4.15625 L 2.3125 -4.15625 C 2.363281 -3.207031 2.828125 -2.476562 3.703125 -1.96875 C 4.453125 -1.539062 5.453125 -1.328125 6.703125 -1.328125 C 9.304688 -1.328125 10.609375 -2.144531 10.609375 -3.78125 C 10.609375 -4.34375 10.375 -4.785156 9.90625 -5.109375 C 9.4375 -5.429688 8.847656 -5.695312 8.140625 -5.90625 C 7.429688 -6.113281 6.664062 -6.304688 5.84375 -6.484375 C 5.03125 -6.671875 4.269531 -6.90625 3.5625 -7.1875 C 2.851562 -7.476562 2.265625 -7.859375 1.796875 -8.328125 C 1.328125 -8.796875 1.09375 -9.429688 1.09375 -10.234375 C 1.09375 -11.359375 1.523438 -12.273438 2.390625 -12.984375 C 3.265625 -13.703125 4.578125 -14.0625 6.328125 -14.0625 C 8.085938 -14.0625 9.453125 -13.660156 10.421875 -12.859375 C 11.296875 -12.140625 11.765625 -11.21875 11.828125 -10.09375 L 10.203125 -10.09375 C 10.066406 -11.25 9.328125 -12.015625 7.984375 -12.390625 C 7.503906 -12.523438 6.910156 -12.59375 6.203125 -12.59375 C 5.492188 -12.59375 4.898438 -12.507812 4.421875 -12.34375 C 3.941406 -12.1875 3.566406 -11.992188 3.296875 -11.765625 Z M 3.296875 -11.765625 "/></g></g></g><g fill="#19365a" fill-opacity="1"><g transform="translate(220.033582, 253.058979)"><g><path d="M 13.84375 0 L 12.09375 0 L 10.390625 -4.03125 L 3.5 -4.03125 L 1.8125 0 L 0.0625 0 L 5.96875 -13.90625 L 7.9375 -13.90625 Z M 9.78125 -5.484375 L 6.953125 -12.265625 L 4.109375 -5.484375 Z M 5.4375 -15.828125 C 4.945312 -15.828125 4.597656 -15.554688 4.390625 -15.015625 L 3.734375 -15.015625 C 3.835938 -15.941406 4.222656 -16.570312 4.890625 -16.90625 C 5.148438 -17.019531 5.445312 -17.078125 5.78125 -17.078125 C 6.238281 -17.078125 6.660156 -16.976562 7.046875 -16.78125 C 7.441406 -16.582031 7.738281 -16.4375 7.9375 -16.34375 C 8.144531 -16.257812 8.382812 -16.21875 8.65625 -16.21875 C 8.9375 -16.21875 9.15625 -16.3125 9.3125 -16.5 C 9.476562 -16.6875 9.585938 -16.867188 9.640625 -17.046875 L 10.3125 -17.046875 C 10.09375 -15.679688 9.421875 -15 8.296875 -15 C 7.796875 -15 7.351562 -15.09375 6.96875 -15.28125 C 6.59375 -15.46875 6.300781 -15.601562 6.09375 -15.6875 C 5.894531 -15.78125 5.675781 -15.828125 5.4375 -15.828125 Z M 5.4375 -15.828125 "/></g></g></g><g fill="#19365a" fill-opacity="1"><g transform="translate(233.654923, 253.058979)"><g><path d="M 7.875 -14.0625 C 9.945312 -14.0625 11.648438 -13.367188 12.984375 -11.984375 C 14.285156 -10.640625 14.9375 -8.957031 14.9375 -6.9375 C 14.9375 -4.925781 14.285156 -3.25 12.984375 -1.90625 C 11.648438 -0.519531 9.945312 0.171875 7.875 0.171875 C 5.800781 0.171875 4.097656 -0.519531 2.765625 -1.90625 C 1.460938 -3.25 0.8125 -4.925781 0.8125 -6.9375 C 0.8125 -8.957031 1.460938 -10.640625 2.765625 -11.984375 C 4.097656 -13.367188 5.800781 -14.0625 7.875 -14.0625 Z M 7.875 -1.359375 C 9.53125 -1.359375 10.867188 -1.898438 11.890625 -2.984375 C 12.867188 -4.015625 13.359375 -5.335938 13.359375 -6.953125 C 13.359375 -8.554688 12.867188 -9.878906 11.890625 -10.921875 C 10.867188 -11.992188 9.53125 -12.53125 7.875 -12.53125 C 6.21875 -12.53125 4.878906 -11.992188 3.859375 -10.921875 C 2.878906 -9.878906 2.390625 -8.554688 2.390625 -6.953125 C 2.390625 -5.335938 2.878906 -4.015625 3.859375 -2.984375 C 4.878906 -1.898438 6.21875 -1.359375 7.875 -1.359375 Z M 7.875 -1.359375 "/></g></g></g><g fill="#19365a" fill-opacity="1"><g transform="translate(249.396132, 253.058979)"><g/></g></g><g fill="#19365a" fill-opacity="1"><g transform="translate(253.866641, 253.058979)"><g><path d="M 7.890625 -1.359375 C 8.890625 -1.359375 9.765625 -1.609375 10.515625 -2.109375 C 11.265625 -2.617188 11.820312 -3.300781 12.1875 -4.15625 L 13.84375 -4.15625 C 13.375 -2.84375 12.609375 -1.804688 11.546875 -1.046875 C 10.410156 -0.234375 9.070312 0.171875 7.53125 0.171875 C 5.507812 0.171875 3.867188 -0.519531 2.609375 -1.90625 C 1.410156 -3.238281 0.8125 -4.921875 0.8125 -6.953125 C 0.8125 -8.984375 1.410156 -10.660156 2.609375 -11.984375 C 3.867188 -13.367188 5.507812 -14.0625 7.53125 -14.0625 C 9.070312 -14.0625 10.410156 -13.660156 11.546875 -12.859375 C 12.609375 -12.097656 13.375 -11.0625 13.84375 -9.75 L 12.1875 -9.75 C 11.820312 -10.601562 11.265625 -11.28125 10.515625 -11.78125 C 9.765625 -12.28125 8.890625 -12.53125 7.890625 -12.53125 C 6.898438 -12.53125 6.078125 -12.382812 5.421875 -12.09375 C 4.765625 -11.8125 4.210938 -11.421875 3.765625 -10.921875 C 2.847656 -9.898438 2.390625 -8.578125 2.390625 -6.953125 C 2.390625 -5.328125 2.847656 -4.003906 3.765625 -2.984375 C 4.710938 -1.898438 6.085938 -1.359375 7.890625 -1.359375 Z M 7.890625 -1.359375 "/></g></g></g><g fill="#19365a" fill-opacity="1"><g transform="translate(268.348554, 253.058979)"><g><path d="M 13.84375 0 L 12.09375 0 L 10.390625 -4.03125 L 3.5 -4.03125 L 1.8125 0 L 0.0625 0 L 5.96875 -13.90625 L 7.9375 -13.90625 Z M 9.78125 -5.484375 L 6.953125 -12.265625 L 4.109375 -5.484375 Z M 9.78125 -5.484375 "/></g></g></g><g fill="#19365a" fill-opacity="1"><g transform="translate(282.242802, 253.058979)"><g><path d="M 3.28125 -12.390625 L 3.28125 -7.734375 L 11 -7.734375 L 11 -6.1875 L 3.28125 -6.1875 L 3.28125 -1.515625 L 11.921875 -1.515625 L 11.921875 0 L 1.703125 0 L 1.703125 -13.90625 L 11.921875 -13.90625 L 11.921875 -12.390625 Z M 3.28125 -12.390625 "/></g></g></g><g fill="#19365a" fill-opacity="1"><g transform="translate(295.003684, 253.058979)"><g><path d="M 11.578125 -12.390625 L 6.71875 -12.390625 L 6.71875 0 L 5.140625 0 L 5.140625 -12.390625 L 0.296875 -12.390625 L 0.296875 -13.90625 L 11.578125 -13.90625 Z M 11.578125 -12.390625 "/></g></g></g><g fill="#19365a" fill-opacity="1"><g transform="translate(305.623503, 253.058979)"><g><path d="M 13.84375 0 L 12.09375 0 L 10.390625 -4.03125 L 3.5 -4.03125 L 1.8125 0 L 0.0625 0 L 5.96875 -13.90625 L 7.9375 -13.90625 Z M 9.78125 -5.484375 L 6.953125 -12.265625 L 4.109375 -5.484375 Z M 9.78125 -5.484375 "/></g></g></g><g fill="#19365a" fill-opacity="1"><g transform="translate(319.517751, 253.058979)"><g><path d="M 13.6875 -13.90625 L 13.6875 0 L 11.859375 0 L 3.28125 -11.734375 L 3.28125 0 L 1.703125 0 L 1.703125 -13.90625 L 3.53125 -13.90625 L 12.109375 -2.203125 L 12.109375 -13.90625 Z M 13.6875 -13.90625 "/></g></g></g><g fill="#19365a" fill-opacity="1"><g transform="translate(334.902169, 253.058979)"><g><path d="M 7.875 -14.0625 C 9.945312 -14.0625 11.648438 -13.367188 12.984375 -11.984375 C 14.285156 -10.640625 14.9375 -8.957031 14.9375 -6.9375 C 14.9375 -4.925781 14.285156 -3.25 12.984375 -1.90625 C 11.648438 -0.519531 9.945312 0.171875 7.875 0.171875 C 5.800781 0.171875 4.097656 -0.519531 2.765625 -1.90625 C 1.460938 -3.25 0.8125 -4.925781 0.8125 -6.9375 C 0.8125 -8.957031 1.460938 -10.640625 2.765625 -11.984375 C 4.097656 -13.367188 5.800781 -14.0625 7.875 -14.0625 Z M 7.875 -1.359375 C 9.53125 -1.359375 10.867188 -1.898438 11.890625 -2.984375 C 12.867188 -4.015625 13.359375 -5.335938 13.359375 -6.953125 C 13.359375 -8.554688 12.867188 -9.878906 11.890625 -10.921875 C 10.867188 -11.992188 9.53125 -12.53125 7.875 -12.53125 C 6.21875 -12.53125 4.878906 -11.992188 3.859375 -10.921875 C 2.878906 -9.878906 2.390625 -8.554688 2.390625 -6.953125 C 2.390625 -5.335938 2.878906 -4.015625 3.859375 -2.984375 C 4.878906 -1.898438 6.21875 -1.359375 7.875 -1.359375 Z M 7.875 -1.359375 "/></g></g></g><g fill="#19365a" fill-opacity="1"><g transform="translate(350.645317, 253.058979)"><g/></g></g></svg>